<svg xmlns="http://www.w3.org/2000/svg" xmlns:xlink="http://www.w3.org/1999/xlink" preserveAspectRatio="xMidYMid" width="158" height="190.344" viewBox="0 0 158 190.344">
  <defs>
    <style>
      .cls-1 {
        fill: #fff;
        fill-rule: evenodd;
      }
    </style>
  </defs>
  <path d="M144.000,36.000 C143.628,57.521 135.528,67.387 123.000,76.000 C132.156,90.962 146.028,93.023 158.000,106.000 C157.667,112.666 157.333,119.334 157.000,126.000 C150.826,125.012 152.884,124.289 148.000,127.000 C145.925,138.407 140.111,144.575 136.000,154.000 C135.333,153.333 134.667,152.667 134.000,152.000 C129.731,150.383 127.912,149.036 126.000,145.000 C117.522,147.233 103.979,146.688 95.000,141.000 C93.514,132.950 87.685,126.917 82.000,123.000 C80.667,123.667 79.333,124.333 78.000,125.000 C95.167,127.350 87.896,141.603 93.000,153.000 C95.030,157.533 99.971,161.055 102.000,165.000 C101.667,165.667 101.333,166.333 101.000,167.000 C98.000,167.000 95.000,167.000 92.000,167.000 C91.061,173.739 89.465,172.460 86.000,176.000 C88.346,179.598 89.752,180.135 87.000,184.000 C75.926,199.325 52.076,181.887 35.000,183.000 C32.981,161.419 -5.684,138.265 13.000,113.000 C18.454,111.173 16.394,109.504 20.000,108.000 C18.667,104.334 17.333,100.666 16.000,97.000 C23.584,97.376 37.176,89.461 39.000,81.000 C34.687,80.792 34.173,80.738 32.000,79.000 C36.669,75.010 36.854,67.613 35.000,60.000 C28.963,57.015 24.295,56.514 17.000,56.000 C17.000,54.334 17.000,52.667 17.000,51.000 C8.877,50.844 5.154,48.286 -0.000,45.000 C0.333,44.333 0.667,43.667 1.000,43.000 C5.836,41.469 5.340,41.004 6.000,38.000 C8.666,38.333 11.334,38.667 14.000,39.000 C14.278,41.366 13.778,40.247 15.000,43.000 C19.162,40.371 27.675,39.810 30.000,37.000 C30.000,36.000 30.000,35.000 30.000,34.000 C28.236,30.238 28.390,30.271 24.000,29.000 C24.667,27.333 25.333,25.666 26.000,24.000 C29.146,25.533 30.110,25.932 34.000,25.000 C32.647,15.659 36.009,6.330 43.000,-0.000 C54.357,0.137 57.706,6.736 66.000,10.000 C84.082,17.115 126.196,35.474 144.000,36.000 Z" class="cls-1"/>
</svg>
