<svg xmlns="http://www.w3.org/2000/svg" xmlns:xlink="http://www.w3.org/1999/xlink" preserveAspectRatio="xMidYMid" width="198" height="125" viewBox="0 0 198 125">
  <defs>
    <style>
      .cls-1 {
        fill: #fff;
        fill-rule: evenodd;
      }
    </style>
  </defs>
  <path d="M96.000,109.000 C89.372,109.243 90.231,109.495 86.000,107.000 C85.333,104.667 84.667,102.333 84.000,100.000 C74.756,103.130 59.905,100.888 52.000,99.000 C51.220,104.170 50.115,106.332 47.000,109.000 C42.000,108.000 36.999,107.000 32.000,106.000 C29.457,96.845 25.699,95.807 24.000,86.000 C28.317,84.791 28.727,83.949 31.000,81.000 C28.116,75.665 24.944,76.831 29.000,72.000 C32.613,62.714 40.924,61.608 44.000,51.000 C34.324,50.879 26.784,46.689 18.000,41.000 C16.190,34.227 15.601,16.606 12.000,13.000 C8.201,11.888 7.123,13.158 4.000,15.000 C1.797,13.494 1.521,13.181 -0.000,11.000 C3.850,6.216 12.285,1.581 19.000,0.000 C19.333,2.333 19.667,4.667 20.000,7.000 C24.666,4.667 29.334,2.333 34.000,0.000 C32.658,4.361 33.004,10.295 35.000,14.000 C45.576,10.787 66.755,13.538 73.000,18.000 C73.416,23.474 73.912,22.990 76.000,26.000 C78.333,25.333 80.667,24.667 83.000,24.000 C84.048,19.752 83.657,12.852 85.000,11.000 C86.000,11.667 87.000,12.333 88.000,13.000 C89.333,16.333 90.667,19.667 92.000,23.000 C101.780,23.769 105.056,24.624 114.000,23.000 C114.333,23.333 114.667,23.667 115.000,24.000 C114.000,26.000 113.000,28.000 112.000,30.000 C144.239,40.190 149.603,53.054 198.000,53.000 C192.813,62.262 199.873,67.671 196.000,75.000 C188.852,88.527 168.997,100.409 174.000,117.000 C167.334,113.667 160.666,110.333 154.000,107.000 C150.010,106.188 145.079,110.915 139.000,108.000 C138.667,106.333 138.333,104.666 138.000,103.000 C137.333,103.667 136.667,104.333 136.000,105.000 C128.856,109.185 117.436,118.541 112.000,125.000 C106.170,122.542 100.504,120.490 94.000,118.000 C94.667,115.000 95.333,112.000 96.000,109.000 Z" class="cls-1"/>
</svg>
