<svg xmlns="http://www.w3.org/2000/svg" xmlns:xlink="http://www.w3.org/1999/xlink" preserveAspectRatio="xMidYMid" width="173" height="127" viewBox="0 0 173 127">
  <defs>
    <style>
      .cls-1 {
        fill: #fff;
        fill-rule: evenodd;
      }
    </style>
  </defs>
  <path d="M45.000,0.000 C62.124,8.503 72.602,15.809 90.000,14.000 C92.006,25.887 101.724,25.787 108.000,33.000 C105.545,38.270 104.825,38.003 110.000,42.000 C110.000,42.667 110.000,43.333 110.000,44.000 C114.778,43.212 129.568,40.564 135.000,42.000 C139.000,45.000 143.000,48.000 147.000,51.000 C158.094,53.494 163.472,44.740 173.000,47.000 C173.000,47.667 173.000,48.333 173.000,49.000 C173.000,51.333 173.000,53.667 173.000,56.000 C168.211,56.045 164.475,60.847 161.000,65.000 C160.645,75.345 162.167,79.070 163.000,89.000 C162.667,89.333 162.333,89.667 162.000,90.000 C131.357,89.492 138.421,101.769 126.000,120.000 C123.334,117.334 120.666,114.666 118.000,112.000 C117.667,112.000 117.333,112.000 117.000,112.000 C117.229,118.209 116.763,123.403 115.000,127.000 C112.667,126.667 110.333,126.333 108.000,126.000 C107.412,120.535 106.195,119.331 104.000,116.000 C95.150,115.802 74.215,118.186 68.000,115.000 C67.667,110.334 67.333,105.666 67.000,101.000 C63.667,103.333 60.333,105.667 57.000,108.000 C56.000,108.000 55.000,108.000 54.000,108.000 C54.000,105.667 54.000,103.333 54.000,101.000 C47.001,104.333 39.999,107.667 33.000,111.000 C32.667,110.000 32.333,109.000 32.000,108.000 C35.250,101.029 34.860,94.977 34.000,85.000 C23.510,81.906 2.613,67.725 0.000,56.000 C26.278,40.612 10.154,33.135 22.000,13.000 C29.666,8.667 37.334,4.333 45.000,0.000 Z" class="cls-1"/>
</svg>
