<svg xmlns="http://www.w3.org/2000/svg" xmlns:xlink="http://www.w3.org/1999/xlink" preserveAspectRatio="xMidYMid" width="206" height="147" viewBox="0 0 206 147">
  <defs>
    <style>
      .cls-1 {
        fill: #fff;
        fill-rule: evenodd;
      }
    </style>
  </defs>
  <path d="M93.000,10.000 C91.510,38.964 103.879,42.373 122.000,49.000 C117.210,57.904 110.259,62.727 104.000,70.000 C105.925,73.059 107.427,73.763 110.000,76.000 C109.000,77.333 108.000,78.667 107.000,80.000 C105.333,80.000 103.666,80.000 102.000,80.000 C103.806,90.293 109.023,94.619 111.000,104.000 C117.063,104.128 122.556,103.715 125.000,107.000 C130.571,105.470 131.961,102.916 133.000,97.000 C141.112,97.284 157.297,95.790 165.000,99.000 C166.000,101.666 167.000,104.334 168.000,107.000 C170.333,107.000 172.667,107.000 175.000,107.000 C175.000,107.333 175.000,107.667 175.000,108.000 C174.000,110.333 173.000,112.667 172.000,115.000 C181.680,117.672 185.930,124.814 192.000,131.000 C194.666,130.667 197.334,130.333 200.000,130.000 C202.000,132.666 204.000,135.334 206.000,138.000 C206.000,141.000 206.000,144.000 206.000,147.000 C205.000,147.000 204.000,147.000 203.000,147.000 C190.008,139.758 179.898,134.289 163.000,129.000 C162.698,123.875 162.383,122.104 159.000,120.000 C148.872,114.371 117.281,114.643 109.000,109.000 C103.373,105.038 99.838,97.517 93.000,95.000 C96.732,89.060 95.983,83.317 100.000,74.000 C95.000,69.001 89.999,64.000 85.000,59.000 C82.558,52.383 87.840,49.895 79.000,43.000 C65.661,43.892 50.657,31.539 43.000,23.000 C43.667,22.000 44.333,21.000 45.000,20.000 C49.333,23.333 53.667,26.667 58.000,30.000 C60.396,18.529 67.506,11.765 71.000,0.000 C78.174,1.533 79.307,5.308 81.000,12.000 C85.000,11.333 89.000,10.667 93.000,10.000 ZM21.000,41.000 C27.643,41.474 55.642,51.106 59.000,55.000 C57.579,58.991 58.715,60.487 58.000,66.000 C63.010,65.883 62.074,65.107 65.000,67.000 C65.000,67.333 65.000,67.667 65.000,68.000 C58.588,69.983 56.525,75.287 53.000,80.000 C48.573,77.791 49.959,76.377 46.000,80.000 C47.356,83.071 47.544,82.518 47.000,86.000 C37.543,87.961 37.067,94.011 35.000,103.000 C33.667,102.333 32.333,101.667 31.000,101.000 C19.384,92.955 12.376,75.411 -0.000,66.000 C0.333,65.000 0.667,64.000 1.000,63.000 C4.333,61.334 7.667,59.666 11.000,58.000 C10.357,46.651 11.726,45.109 21.000,41.000 Z" class="cls-1"/>
</svg>
