<svg xmlns="http://www.w3.org/2000/svg" xmlns:xlink="http://www.w3.org/1999/xlink" preserveAspectRatio="xMidYMid" width="177" height="176" viewBox="0 0 177 176">
  <defs>
    <style>
      .cls-1 {
        fill: #fff;
        fill-rule: evenodd;
      }
    </style>
  </defs>
  <path d="M138.000,62.000 C138.333,64.000 138.667,66.000 139.000,68.000 C155.264,68.357 166.257,77.060 177.000,88.000 C171.342,94.848 163.077,98.547 154.000,102.000 C155.443,107.222 152.620,109.719 148.000,114.000 C156.827,126.020 163.969,134.210 159.000,153.000 C150.614,158.412 132.124,165.159 133.000,176.000 C125.449,174.492 123.023,170.842 119.000,166.000 C123.994,157.934 128.299,152.296 122.000,143.000 C122.333,142.667 122.667,142.333 123.000,142.000 C124.333,142.667 125.667,143.333 127.000,144.000 C127.667,143.333 128.333,142.667 129.000,142.000 C128.667,140.667 128.333,139.333 128.000,138.000 C125.334,137.667 122.666,137.333 120.000,137.000 C120.863,131.673 119.957,132.827 117.000,127.000 C105.319,126.466 106.237,122.563 94.000,121.000 C95.110,118.165 94.865,119.546 95.000,117.000 C89.189,115.348 86.321,114.282 81.000,113.000 C77.024,115.267 72.598,117.185 70.000,121.000 C78.865,129.825 85.346,136.505 97.000,143.000 C97.684,152.144 100.192,156.653 98.000,165.000 C97.667,165.000 97.333,165.000 97.000,165.000 C83.524,162.375 73.212,158.554 58.000,156.000 C46.599,140.298 31.161,136.520 47.000,122.000 C57.370,112.493 46.040,112.351 66.000,104.000 C65.333,103.333 64.667,102.667 64.000,102.000 C60.837,104.078 58.630,104.837 53.000,105.000 C53.000,104.333 53.000,103.667 53.000,103.000 C58.443,101.856 60.545,101.475 62.000,96.000 C57.891,97.267 56.724,97.165 56.000,93.000 C59.535,94.172 60.479,93.919 63.000,92.000 C55.322,90.118 33.684,58.848 21.000,51.000 C21.203,36.503 17.919,35.629 14.000,26.000 C6.940,27.917 6.099,27.641 1.000,24.000 C0.667,23.000 0.333,22.000 -0.000,21.000 C0.667,20.333 1.333,19.667 2.000,19.000 C3.333,20.000 4.667,21.000 6.000,22.000 C13.700,14.404 22.955,7.121 31.000,0.000 C31.333,0.000 31.667,0.000 32.000,0.000 C32.667,2.000 33.333,4.000 34.000,6.000 C51.856,5.431 55.834,8.092 69.000,15.000 C70.138,26.809 71.919,27.103 79.000,34.000 C88.195,34.038 89.492,32.263 95.000,32.000 C103.804,38.795 118.346,39.606 125.000,49.000 C128.363,53.748 126.961,57.440 130.000,62.000 C132.666,62.000 135.334,62.000 138.000,62.000 Z" class="cls-1"/>
</svg>
