<svg xmlns="http://www.w3.org/2000/svg" xmlns:xlink="http://www.w3.org/1999/xlink" preserveAspectRatio="xMidYMid" width="209" height="222.406" viewBox="0 0 209 222.406">
  <defs>
    <style>
      .cls-1 {
        fill: #fff;
        fill-rule: evenodd;
      }
    </style>
  </defs>
  <path d="M63.000,0.406 C68.452,0.917 67.371,-0.003 69.000,4.406 C75.266,8.096 73.743,14.603 74.000,19.406 C90.267,24.813 111.431,75.819 124.000,90.406 C128.756,95.925 139.237,97.135 145.000,99.406 C144.333,100.739 143.667,102.073 143.000,103.406 C148.288,104.500 177.994,137.738 181.000,142.406 C189.326,143.423 192.444,144.831 202.000,144.406 C204.333,148.072 206.667,151.740 209.000,155.406 C205.619,157.725 204.948,161.690 202.000,164.406 C191.749,160.175 186.867,152.780 170.000,148.406 C168.334,150.739 166.666,153.073 165.000,155.406 C167.333,158.406 169.667,161.406 172.000,164.406 C171.667,165.073 171.333,165.739 171.000,166.406 C167.000,167.406 163.000,168.406 159.000,169.406 C159.000,187.071 159.000,204.741 159.000,222.406 C158.667,222.406 158.333,222.406 158.000,222.406 C137.342,213.450 135.020,190.659 105.000,184.406 C102.243,187.844 101.453,188.332 95.000,188.406 C91.847,184.901 88.305,183.967 86.000,179.406 C73.681,151.842 95.950,144.175 105.000,124.406 C109.800,113.921 100.905,114.014 108.000,102.406 C107.667,101.739 107.333,101.073 107.000,100.406 C70.576,101.320 39.335,95.602 22.000,77.406 C22.667,75.406 23.333,73.406 24.000,71.406 C13.492,72.278 8.605,74.039 0.000,69.406 C4.175,61.444 13.882,46.852 14.000,39.406 C22.910,38.836 27.012,36.477 38.000,36.406 C38.000,36.073 38.000,35.739 38.000,35.406 C35.551,27.298 34.667,19.270 37.000,11.406 C41.916,9.580 42.441,6.385 46.000,3.406 C54.683,4.628 57.062,5.417 63.000,0.406 Z" class="cls-1"/>
</svg>
